HIERARCHY
ROOT Hips
{
	OFFSET 0.00000 0.00000 0.00000
	CHANNELS 6 Xposition Yposition Zposition Zrotation Yrotation Xrotation 
	JOINT LHipJoint
	{
		OFFSET 0 0 0
		CHANNELS 3 Zrotation Yrotation Xrotation
		JOINT LeftHip
		{
			OFFSET 1.62329 -1.80800 0.67318
			CHANNELS 3 Zrotation Yrotation Xrotation
			JOINT LeftKnee
			{
				OFFSET 2.57139 -7.06484 0.00000
				CHANNELS 3 Zrotation Yrotation Xrotation
				JOINT LeftAnkle
				{
					OFFSET 2.52017 -6.92413 0.00000
					CHANNELS 3 Zrotation Yrotation Xrotation
					JOINT LeftToe
					{
						OFFSET 0.23295 -0.64001 2.10214
						CHANNELS 3 Zrotation Yrotation Xrotation
						End Site
						{
							OFFSET 0.00000 -0.00000 1.10139
						}
					}
				}
			}
		}
	}
	JOINT RHipJoint
	{
		OFFSET 0 0 0
		CHANNELS 3 Zrotation Yrotation Xrotation
		JOINT RightHip
		{
			OFFSET -1.48061 -1.80800 0.67318
			CHANNELS 3 Zrotation Yrotation Xrotation
			JOINT RightKnee
			{
				OFFSET -2.63258 -7.23296 0.00000
				CHANNELS 3 Zrotation Yrotation Xrotation
				JOINT RightAnkle
				{
					OFFSET -2.54779 -7.00000 0.00000
					CHANNELS 3 Zrotation Yrotation Xrotation
					JOINT RightToe
					{
						OFFSET -0.23067 -0.63376 2.12161
						CHANNELS 3 Zrotation Yrotation Xrotation
						End Site
						{
							OFFSET -0.00000 -0.00000 1.11000
						}
					}
				}
			}
		}
	}
	JOINT lowerback
	{
		OFFSET 0 0 0
		CHANNELS 3 Zrotation Yrotation Xrotation
		JOINT Chest
		{
			OFFSET -0.02108 2.07573 -0.16981
			CHANNELS 3 Zrotation Yrotation Xrotation
			JOINT Chest2
			{
				OFFSET 0.05070 2.08439 -0.03141
				CHANNELS 3 Zrotation Yrotation Xrotation
				JOINT lowerneck
				{
					OFFSET 0 0 0
					CHANNELS 3 Zrotation Yrotation Xrotation
					JOINT Neck
					{
						OFFSET -0.10731 1.60408 0.31370
						CHANNELS 3 Zrotation Yrotation Xrotation
						JOINT Head
						{
							OFFSET 0.08411 1.65679 -0.30822
							CHANNELS 3 Zrotation Yrotation Xrotation
							End Site
							{
								OFFSET 0.03911 1.69149 -0.14146
							}
						}
					}
				}
				JOINT LeftCollar
				{
					OFFSET 0 0 0
					CHANNELS 3 Zrotation Yrotation Xrotation
					JOINT LeftShoulder
					{
						OFFSET 3.52315 0.73219 -0.54694
CHANNELS 3 Zrotation Xrotation Yrotation
						JOINT LeftElbow
						{
OFFSET 0 -5.324620 -0.000000
CHANNELS 3 Zrotation Xrotation Yrotation
							JOINT LeftWrist
							{
OFFSET 0 -3.484020 -0.000000
CHANNELS 3 Zrotation Xrotation Yrotation
								JOINT lhand
								{
									OFFSET 0 0 0
CHANNELS 3 Zrotation Xrotation Yrotation
									JOINT LFingers
									{
OFFSET 0 -0.572480 -0.000000
CHANNELS 3 Zrotation Xrotation Yrotation
										End Site
										{
OFFSET 0 -0.461540 -0.000000
										}
									}
								}
								JOINT LThumb
								{
OFFSET 0 0.000000 0.000000
CHANNELS 3 Zrotation Xrotation Yrotation
									End Site
									{
OFFSET 0 -0.468590 0.468590
									}
								}
							}
						}
					}
				}
				JOINT RightCollar
				{
					OFFSET 0 0 0
					CHANNELS 3 Zrotation Yrotation Xrotation
					JOINT RightShoulder
					{
						OFFSET -3.41766 0.93592 -0.10019
CHANNELS 3 Zrotation Xrotation Yrotation
						JOINT RightElbow
						{
OFFSET 0 -5.335890 -0.000000
CHANNELS 3 Zrotation Xrotation Yrotation
							JOINT RightWrist
							{
OFFSET 0 -3.641340 -0.000000
CHANNELS 3 Zrotation Xrotation Yrotation
								JOINT rhand
								{
									OFFSET 0 0 0
CHANNELS 3 Zrotation Xrotation Yrotation
									JOINT RFingers
									{
OFFSET 0 -0.734810 -0.000000
CHANNELS 3 Zrotation Xrotation Yrotation
										End Site
										{
OFFSET 0 -0.592420 -0.000000
										}
									}
								}
								JOINT RThumb
								{
OFFSET 0 0.000000 0.000000
CHANNELS 3 Zrotation Xrotation Yrotation
									End Site
									{
OFFSET 0 -0.601470 0.601470
									}
								}
							}
						}
					}
				}
			}
		}
	}
}
MOTION
Frames: 16
Frame Time: .04
-2.0062 16.1014 -0.7486 1.3173 2.5209 4.0657 0.0000 0.0000 0.0000 -18.8182 1.0437 -29.3269 10.5284 17.6964 61.2402 2.4413 -11.4916 -28.1532 1.4400 -7.5866 -21.4652 0.0000 0.0000 0.0000 18.7519 8.5093 -26.1411 -11.1972 -18.0302 63.4203 -3.4659 7.7752 -33.8509 -0.1012 2.0518 -5.6488 -3.8048 -0.5577 11.0928 1.0354 -1.1511 0.9599 3.4087 -0.4735 -5.1219 -9.6503 -1.6213 -27.1564 6.5696 -0.0414 17.1352 3.9127 0.1407 9.8766 -0.0000 0.0000 0.0000 -4.097 -5.1754 13.9601 14.8111 -23.8823 3.1491 30.2443 -26.5566 -44.2426 0.0 0.0 0.0 -7.1250 0.0 0.0 -17.8880 77.8916 13.8127 -0.0000 0.0000 0.0000 -1.778 -2.6398 -5.5283 -15.5003 -24.8384 -3.4334 -16.5016 -1.5198 16.7172 0.0 0.0 0.0 7.1250 0.0 -0.0 10.8109 47.0792 -0.561
-1.9330 16.7174 -0.6240 1.4208 1.3770 3.7355 0.0000 0.0000 0.0000 -19.8117 2.5836 -25.1840 8.2233 16.2811 53.3632 1.5333 -10.4127 -22.2870 1.2931 -7.2051 -20.3244 0.0000 0.0000 0.0000 18.2926 6.5940 -22.6009 -8.9675 -16.7867 55.9775 -2.2644 8.5117 -27.0556 -0.0085 0.5967 -1.6397 -3.4199 -0.2476 9.9399 1.4201 -0.6402 0.4124 3.5059 -0.2185 -5.0960 -9.3971 -1.2706 -27.6354 5.2799 0.6781 18.7065 3.5595 0.2953 10.4704 -0.0000 -0.0000 0.0000 5.1238 -4.4456 23.1165 17.7876 -27.8844 4.4495 29.8478 -29.872 -40.9951 0.0 0.0 0.0 -7.1250 0.0 0.0 -11.7725 74.7708 8.2934 -0.0000 -0.0000 0.0000 -11.9366 -2.1982 -15.5021 -18.2086 -28.4235 -4.6481 -23.2194 -2.8012 17.6028 0.0 0.0 0.0 7.1250 0.0 -0.0 4.6734 48.9698 -0.4585
-1.8945 18.1308 -0.4970 1.5390 2.2377 3.6576 0.0000 0.0000 0.0000 -18.7248 2.5946 -19.9836 5.0190 13.4051 40.9045 -0.3514 -10.5026 2.6426 1.8405 -8.5257 -24.3224 0.0000 0.0000 0.0000 16.9278 3.4518 -19.5764 -6.1851 -14.6054 45.7203 -0.1694 0.5905 -7.5850 -0.0152 -0.7956 2.1866 -3.2870 -0.6908 8.1188 1.7030 -1.1500 0.2065 3.7572 -0.4872 -4.2423 -8.9864 -1.6134 -29.1434 4.8953 0.2835 19.3060 3.3175 0.0922 10.9880 0.0000 -0.0000 0.0000 19.8386 -2.1079 27.0296 21.4678 -32.3703 6.2985 29.4519 -26.2569 -37.5718 0.0 0.0 0.0 -7.1250 0.0 0.0 -7.7501 71.3059 4.8662 0.0000 -0.0000 0.0000 -26.7465 -2.3486 -23.9791 -21.1165 -31.9641 -6.1115 -25.7392 -2.8652 15.1101 0.0 0.0 0.0 7.1250 0.0 -0.0 1.7684 46.6583 -0.0724
-1.8445 19.2005 -0.3325 1.5578 2.2541 3.7285 0.0000 0.0000 0.0000 -15.9141 0.7311 -14.3307 2.5874 9.9951 28.9610 0.0259 -6.6670 10.1272 2.3725 -9.6023 -27.6981 0.0000 0.0000 0.0000 14.2687 2.5230 -17.0488 -4.2835 -12.5284 37.6280 0.1265 -7.4030 1.4505 -0.3248 -3.6632 10.1310 -2.5252 -0.8902 5.8112 1.5093 -1.3092 -0.7428 3.1005 -0.5778 -3.9374 -9.5510 -2.3004 -28.2834 5.5333 -0.7046 20.3874 3.4996 -0.3445 11.3308 -0.0000 0.0000 0.0000 38.7481 0.5154 28.2035 24.2447 -35.422 7.848 26.3915 -26.2055 -35.7163 0.0 0.0 0.0 -7.1250 0.0 0.0 -10.1105 68.4832 5.7197 -0.0000 0.0000 0.0000 -43.8524 -2.5304 -30.2044 -24.4111 -35.596 -7.9446 -23.8217 -2.8335 13.9274 0.0 0.0 0.0 7.1250 0.0 -0.0 3.3729 45.12 -0.01
-1.8293 19.5654 -0.3256 2.8840 2.2424 2.7429 0.0000 0.0000 0.0000 -13.7284 -3.9340 -7.8472 1.7753 8.3814 23.8786 0.0015 1.4114 1.1590 2.1312 -9.1343 -26.2162 0.0000 0.0000 0.0000 9.2230 4.8969 -13.3635 -3.9387 -12.0784 36.0100 0.0711 -4.7630 -1.1006 -0.0667 -1.6664 4.5846 -3.6914 -0.8955 6.1777 1.2867 -1.4298 -1.3791 3.5587 -0.5837 -4.7792 -10.0752 -2.6143 -27.2007 5.0840 -0.9369 21.4326 3.3918 -0.5882 11.5600 -0.0000 0.0000 0.0000 61.6966 0.9609 27.5484 23.5655 -34.7014 7.4577 26.1282 -17.1404 -32.715 0.0 0.0 0.0 -7.1250 0.0 0.0 -7.9185 65.3989 3.9144 -0.0000 0.0000 0.0000 -64.9885 -4.2088 -34.7513 -27.4349 -38.5908 -9.7692 -25.4065 -1.7612 13.0137 0.0 0.0 0.0 7.1250 0.0 -0.0 1.7713 44.3246 0.0295
-1.8542 19.1824 -0.3840 3.1683 3.3274 1.1323 0.0000 0.0000 0.0000 -9.5147 -6.0888 -4.1341 1.7310 8.2818 23.5734 0.1285 -1.0078 7.2169 1.7468 -8.3174 -23.6825 0.0000 0.0000 0.0000 5.4746 9.1928 -7.8465 -3.7130 -11.7684 34.9175 0.2933 -10.1940 0.0698 -0.0866 -1.8978 5.2233 -4.4924 -1.1779 7.3207 1.5735 -1.9098 -1.5415 4.4025 -0.7681 -5.5246 -10.8862 -2.4872 -25.8917 5.4288 -0.6989 22.6491 3.7205 -0.5482 11.7721 -0.0000 0.0000 0.0000 83.0804 -1.1263 32.448 23.9891 -35.1527 7.7003 24.0714 -6.7712 -32.2683 0.0 0.0 0.0 -7.1250 0.0 0.0 -10.1225 64.3731 4.7722 -0.0000 0.0000 0.0000 -86.9977 -8.3209 -42.4905 -28.7669 -39.8127 -10.6111 -28.2394 4.2147 12.8276 0.0 0.0 0.0 7.1250 0.0 -0.0 -0.8699 44.4697 -0.0114
-1.8697 18.0023 -0.4539 2.6430 4.3493 -0.6742 0.0000 0.0000 0.0000 -4.7408 -8.2061 -3.0170 2.5783 9.9789 28.9083 -0.1326 -7.9599 7.8885 2.4286 -9.7068 -28.0325 0.0000 0.0000 0.0000 3.7753 16.4078 -1.0143 -3.7474 -11.8164 35.0856 -0.0201 -0.2822 -2.7961 -0.7375 5.4862 -15.3006 -3.8231 -1.3280 8.4150 1.4559 -2.0876 -1.1380 3.9516 -0.8806 -5.7272 -10.7895 -2.6132 -25.5394 6.0010 -1.1400 23.5820 3.8749 -0.6865 12.1106 -0.0000 0.0000 0.0000 101.3947 -5.5102 42.4601 30.5296 -41.343 11.7579 24.0656 -0.8034 -29.6051 0.0 0.0 0.0 -7.1250 0.0 0.0 -8.3646 61.6813 3.4088 -0.0000 0.0000 0.0000 -105.9063 -11.8482 -51.7819 -32.8361 -43.2037 -13.3098 -28.6382 5.738 13.7859 0.0 0.0 0.0 7.1250 0.0 -0.0 -1.1475 45.5956 0.0169
-1.8313 16.3875 -0.6279 2.9715 4.9112 -2.1016 0.0000 0.0000 0.0000 -2.2651 -7.0843 -5.9792 4.8072 13.1634 39.9832 -0.2923 -20.7733 -12.1730 3.8928 -12.0164 -35.7901 0.0000 0.0000 0.0000 2.1770 17.7898 -2.0179 -6.3216 -14.7329 46.2592 -0.9898 16.4377 -19.7954 -1.1079 6.6874 -18.7926 -3.6647 -1.3125 11.9239 1.1617 -2.1928 -1.1601 3.7070 -0.8831 -7.7564 -11.0632 -2.9565 -25.4395 6.6173 -1.6979 23.0730 4.0462 -0.8659 11.9570 -0.0000 -0.0000 0.0000 114.1867 -6.2571 46.6725 54.9495 -54.8066 30.1747 29.7373 12.1716 -26.7517 0.0 0.0 0.0 -7.1250 0.0 0.0 -0.3755 60.1157 0.1385 -0.0000 -0.0000 0.0000 -119.0227 -13.134 -55.7855 -48.0251 -52.1672 -24.6055 -36.0908 9.0466 6.825 0.0 0.0 0.0 7.1250 0.0 -0.0 -8.0231 38.2902 -1.3359
-1.7866 15.5582 -0.7449 4.2640 4.8486 -4.2331 0.0000 0.0000 0.0000 -3.0239 -4.0678 -7.8408 6.6224 15.0055 47.4313 1.6512 -20.5818 -25.4265 3.7099 -11.7640 -34.9020 0.0000 0.0000 0.0000 0.4568 16.9233 -4.7090 -9.0596 -16.8459 56.2959 -2.8815 16.6797 -31.1006 -2.4016 9.6567 -27.8719 -5.0873 -0.8731 15.7365 1.1767 -1.9840 -0.0121 4.6126 -0.7073 -8.6513 -11.5336 -3.2906 -26.0736 6.4472 -1.8036 21.1486 3.9868 -0.9243 11.3540 -0.0000 -0.0000 0.0000 119.8353 -1.8661 47.3849 89.9560 -60.0 59.9619 48.9313 31.084 -15.1047 0.0 0.0 0.0 -7.1250 0.0 0.0 21.9329 50.9752 -3.3675 -0.0000 -0.0000 0.0000 -125.0607 -9.7951 -55.2134 -72.6205 -58.8274 -45.0082 -65.4883 1.3363 -10.1051 0.0 0.0 0.0 7.1250 0.0 -0.0 -24.5632 8.2427 -23.0825
-1.8313 16.3875 -0.6279 2.9715 4.9112 -2.1016 0.0000 0.0000 0.0000 -2.2651 -7.0843 -5.9792 4.8072 13.1634 39.9832 -0.2923 -20.7733 -12.1730 3.8928 -12.0164 -35.7901 0.0000 0.0000 0.0000 2.1770 17.7898 -2.0179 -6.3216 -14.7329 46.2592 -0.9898 16.4377 -19.7954 -1.1079 6.6874 -18.7926 -3.6647 -1.3125 11.9239 1.1617 -2.1928 -1.1601 3.7070 -0.8831 -7.7564 -11.0632 -2.9565 -25.4395 6.6173 -1.6979 23.0730 4.0462 -0.8659 11.9570 -0.0000 -0.0000 0.0000 114.1867 -6.2571 46.6725 54.9495 -54.8066 30.1747 29.7373 12.1716 -26.7517 0.0 0.0 0.0 -7.1250 0.0 0.0 -0.3755 60.1157 0.1385 -0.0000 -0.0000 0.0000 -119.0227 -13.134 -55.7855 -48.0251 -52.1672 -24.6055 -36.0908 9.0466 6.825 0.0 0.0 0.0 7.1250 0.0 -0.0 -8.0231 38.2902 -1.3359
-1.8697 18.0023 -0.4539 2.6430 4.3493 -0.6742 0.0000 0.0000 0.0000 -4.7408 -8.2061 -3.0170 2.5783 9.9789 28.9083 -0.1326 -7.9599 7.8885 2.4286 -9.7068 -28.0325 0.0000 0.0000 0.0000 3.7753 16.4078 -1.0143 -3.7474 -11.8164 35.0856 -0.0201 -0.2822 -2.7961 -0.7375 5.4862 -15.3006 -3.8231 -1.3280 8.4150 1.4559 -2.0876 -1.1380 3.9516 -0.8806 -5.7272 -10.7895 -2.6132 -25.5394 6.0010 -1.1400 23.5820 3.8749 -0.6865 12.1106 -0.0000 0.0000 0.0000 101.3947 -5.5102 42.4601 30.5296 -41.343 11.7579 24.0656 -0.8034 -29.6051 0.0 0.0 0.0 -7.1250 0.0 0.0 -8.3646 61.6813 3.4088 -0.0000 0.0000 0.0000 -105.9063 -11.8482 -51.7819 -32.8361 -43.2037 -13.3098 -28.6382 5.738 13.7859 0.0 0.0 0.0 7.1250 0.0 -0.0 -1.1475 45.5956 0.0169
-1.8542 19.1824 -0.3840 3.1683 3.3274 1.1323 0.0000 0.0000 0.0000 -9.5147 -6.0888 -4.1341 1.7310 8.2818 23.5734 0.1285 -1.0078 7.2169 1.7468 -8.3174 -23.6825 0.0000 0.0000 0.0000 5.4746 9.1928 -7.8465 -3.7130 -11.7684 34.9175 0.2933 -10.1940 0.0698 -0.0866 -1.8978 5.2233 -4.4924 -1.1779 7.3207 1.5735 -1.9098 -1.5415 4.4025 -0.7681 -5.5246 -10.8862 -2.4872 -25.8917 5.4288 -0.6989 22.6491 3.7205 -0.5482 11.7721 -0.0000 0.0000 0.0000 83.0804 -1.1263 32.448 23.9891 -35.1527 7.7003 24.0714 -6.7712 -32.2683 0.0 0.0 0.0 -7.1250 0.0 0.0 -10.1225 64.3731 4.7722 -0.0000 0.0000 0.0000 -86.9977 -8.3209 -42.4905 -28.7669 -39.8127 -10.6111 -28.2394 4.2147 12.8276 0.0 0.0 0.0 7.1250 0.0 -0.0 -0.8699 44.4697 -0.0114
-1.8293 19.5654 -0.3256 2.8840 2.2424 2.7429 0.0000 0.0000 0.0000 -13.7284 -3.9340 -7.8472 1.7753 8.3814 23.8786 0.0015 1.4114 1.1590 2.1312 -9.1343 -26.2162 0.0000 0.0000 0.0000 9.2230 4.8969 -13.3635 -3.9387 -12.0784 36.0100 0.0711 -4.7630 -1.1006 -0.0667 -1.6664 4.5846 -3.6914 -0.8955 6.1777 1.2867 -1.4298 -1.3791 3.5587 -0.5837 -4.7792 -10.0752 -2.6143 -27.2007 5.0840 -0.9369 21.4326 3.3918 -0.5882 11.5600 -0.0000 0.0000 0.0000 61.6966 0.9609 27.5484 23.5655 -34.7014 7.4577 26.1282 -17.1404 -32.715 0.0 0.0 0.0 -7.1250 0.0 0.0 -7.9185 65.3989 3.9144 -0.0000 0.0000 0.0000 -64.9885 -4.2088 -34.7513 -27.4349 -38.5908 -9.7692 -25.4065 -1.7612 13.0137 0.0 0.0 0.0 7.1250 0.0 -0.0 1.7713 44.3246 0.0295
-1.8445 19.2005 -0.3325 1.5578 2.2541 3.7285 0.0000 0.0000 0.0000 -15.9141 0.7311 -14.3307 2.5874 9.9951 28.9610 0.0259 -6.6670 10.1272 2.3725 -9.6023 -27.6981 0.0000 0.0000 0.0000 14.2687 2.5230 -17.0488 -4.2835 -12.5284 37.6280 0.1265 -7.4030 1.4505 -0.3248 -3.6632 10.1310 -2.5252 -0.8902 5.8112 1.5093 -1.3092 -0.7428 3.1005 -0.5778 -3.9374 -9.5510 -2.3004 -28.2834 5.5333 -0.7046 20.3874 3.4996 -0.3445 11.3308 -0.0000 0.0000 0.0000 38.7481 0.5154 28.2035 24.2447 -35.422 7.848 26.3915 -26.2055 -35.7163 0.0 0.0 0.0 -7.1250 0.0 0.0 -10.1105 68.4832 5.7197 -0.0000 0.0000 0.0000 -43.8524 -2.5304 -30.2044 -24.4111 -35.596 -7.9446 -23.8217 -2.8335 13.9274 0.0 0.0 0.0 7.1250 0.0 -0.0 3.3729 45.12 -0.01
-1.8945 18.1308 -0.4970 1.5390 2.2377 3.6576 0.0000 0.0000 0.0000 -18.7248 2.5946 -19.9836 5.0190 13.4051 40.9045 -0.3514 -10.5026 2.6426 1.8405 -8.5257 -24.3224 0.0000 0.0000 0.0000 16.9278 3.4518 -19.5764 -6.1851 -14.6054 45.7203 -0.1694 0.5905 -7.5850 -0.0152 -0.7956 2.1866 -3.2870 -0.6908 8.1188 1.7030 -1.1500 0.2065 3.7572 -0.4872 -4.2423 -8.9864 -1.6134 -29.1434 4.8953 0.2835 19.3060 3.3175 0.0922 10.9880 0.0000 -0.0000 0.0000 19.8386 -2.1079 27.0296 21.4678 -32.3703 6.2985 29.4519 -26.2569 -37.5718 0.0 0.0 0.0 -7.1250 0.0 0.0 -7.7501 71.3059 4.8662 0.0000 -0.0000 0.0000 -26.7465 -2.3486 -23.9791 -21.1165 -31.9641 -6.1115 -25.7392 -2.8652 15.1101 0.0 0.0 0.0 7.1250 0.0 -0.0 1.7684 46.6583 -0.0724
-1.9330 16.7174 -0.6240 1.4208 1.3770 3.7355 0.0000 0.0000 0.0000 -19.8117 2.5836 -25.1840 8.2233 16.2811 53.3632 1.5333 -10.4127 -22.2870 1.2931 -7.2051 -20.3244 0.0000 0.0000 0.0000 18.2926 6.5940 -22.6009 -8.9675 -16.7867 55.9775 -2.2644 8.5117 -27.0556 -0.0085 0.5967 -1.6397 -3.4199 -0.2476 9.9399 1.4201 -0.6402 0.4124 3.5059 -0.2185 -5.0960 -9.3971 -1.2706 -27.6354 5.2799 0.6781 18.7065 3.5595 0.2953 10.4704 -0.0000 -0.0000 0.0000 5.1238 -4.4456 23.1165 17.7876 -27.8844 4.4495 29.8478 -29.872 -40.9951 0.0 0.0 0.0 -7.1250 0.0 0.0 -11.7725 74.7708 8.2934 -0.0000 -0.0000 0.0000 -11.9366 -2.1982 -15.5021 -18.2086 -28.4235 -4.6481 -23.2194 -2.8012 17.6028 0.0 0.0 0.0 7.1250 0.0 -0.0 4.6734 48.9698 -0.4585
